name C:\Users\u0101727\Documents\MyRepositories\upper-imu-dc\Results\main_tracking\Case_47\kinematics.mot
datacolumns 10
datarows 28
range 2.12000000 2.39000000
endheader 
time	clav_prot	clav_elev	scapula_abduction	scapula_elevation	scapula_upward_rot	scapula_winging	plane_elv	shoulder_elv	axial_rot	
          2.12000000	        -24.36673389	          2.96393811	          5.08465944	         -4.79911328	         44.80755924	         -3.78654783	         61.88073881	         58.59087312	        -15.62432462	
          2.13000000	        -24.44971349	          3.15877522	          5.23577655	         -4.71045755	         45.23789971	         -3.90655002	         61.88860977	         59.03501223	        -15.42042316	
          2.14000000	        -24.53585801	          3.35020846	          5.38404259	         -4.62365990	         45.66966284	         -4.02432806	         61.88224415	         59.47819487	        -15.23717904	
          2.15000000	        -24.62495100	          3.53789140	          5.52918475	         -4.53884295	         46.10193494	         -4.13968989	         61.86216968	         59.92041677	        -15.07345326	
          2.16000000	        -24.71679748	          3.72154312	          5.67089493	         -4.45609554	         46.53383508	         -4.25247843	         61.82896985	         60.36166089	        -14.92772353	
          2.17000000	        -24.81123398	          3.90095536	          5.80883328	         -4.37547077	         46.96454295	         -4.36257646	         61.78329118	         60.80189745	        -14.79812954	
          2.18000000	        -24.90813835	          4.07599673	          5.94263122	         -4.29698562	         47.39332462	         -4.46991012	         61.72584795	         61.24108270	        -14.68251973	
          2.19000000	        -25.00743918	          4.24661442	          6.07189442	         -4.22062156	         47.81955584	         -4.57445119	         61.65742257	         61.67915473	        -14.57850095	
          2.20000000	        -25.10912306	          4.41283259	          6.19620693	         -4.14632670	         48.24274109	         -4.67621767	         61.57885966	         62.11602645	        -14.48349259	
          2.21000000	        -25.21323723	          4.57474589	          6.31513863	         -4.07402014	         48.66252491	         -4.77527174	         61.49105204	         62.55157741	        -14.39478749	
          2.22000000	        -25.31988563	          4.73250686	          6.42825777	         -4.00359918	         49.07869304	         -4.87171469	         61.39491738	         62.98564705	        -14.30962410	
          2.23000000	        -25.42921760	          4.88630718	          6.53514870	         -3.93494945	         49.49116217	         -4.96567852	         61.29136605	         63.41803180	        -14.22527442	
          2.24000000	        -25.54141053	          5.03635318	          6.63543324	         -3.86795800	         49.89995953	         -5.05731484	         61.18126301	         63.84848785	        -14.13914962	
          2.25000000	        -25.65664916	          5.18283718	          6.72879304	         -3.80252880	         50.30519503	         -5.14678202	         61.06538874	         64.27674023	        -14.04891870	
          2.26000000	        -25.77510459	          5.32590720	          6.81498963	         -3.73859941	         50.70703017	         -5.23423196	         60.94440448	         64.70249728	        -13.95262720	
          2.27000000	        -25.89691605	          5.46563919	          6.89388007	         -3.67615645	         51.10564809	         -5.31979829	         60.81882703	         65.12546804	        -13.84879870	
          2.28000000	        -26.02217649	          5.60201709	          6.96542720	         -3.61524653	         51.50122848	         -5.40358766	         60.68901536	         65.54538012	        -13.73650449	
          2.29000000	        -26.15092231	          5.73492470	          7.02970501	         -3.55597988	         51.89392920	         -5.48567506	         60.55516950	         65.96199570	        -13.61539371	
          2.30000000	        -26.28312645	          5.86415067	          7.08689959	         -3.49852561	         52.28387436	         -5.56610328	         60.41733993	         66.37512458	        -13.48568236	
          2.31000000	        -26.41869457	          5.98940487	          7.13730613	         -3.44309977	         52.67114796	         -5.64488547	         60.27544531	         66.78463352	        -13.34810467	
          2.32000000	        -26.55746431	          6.11034326	          7.18132205	         -3.38994808	         53.05579231	         -5.72201026	         60.12929647	         67.19045146	        -13.20383353	
          2.33000000	        -26.69920822	          6.22659877	          7.21943632	         -3.33932506	         53.43781174	         -5.79744852	         59.97862494	         67.59257008	        -13.05437879	
          2.34000000	        -26.84364022	          6.33781714	          7.25221580	         -3.29147028	         53.81718206	         -5.87116183	         59.82311408	         67.99104010	        -12.90147454	
          2.35000000	        -26.99042516	          6.44369525	          7.28028945	         -3.24658329	         54.19386461	         -5.94311185	         59.66243096	         68.38596450	        -12.74696694	
          2.36000000	        -27.13918959	          6.54401779	          7.30433215	         -3.20479975	         54.56782200	         -6.01326934	         59.49625599	         68.77749085	        -12.59271429	
          2.37000000	        -27.28953219	          6.63868702	          7.32504937	         -3.16617218	         54.93903179	         -6.08162137	         59.32430784	         69.16580424	        -12.44050729	
          2.38000000	        -27.44103392	          6.72773914	          7.34316208	         -3.13065964	         55.30749553	         -6.14817516	         59.14636271	         69.55112130	        -12.29201197	
          2.39000000	        -27.59326695	          6.81134699	          7.35939266	         -3.09812657	         55.67324171	         -6.21295870	         58.96226643	         69.93368523	        -12.14873036	
